<svg width="150" height="150" viewBox="0 0 150 150" fill="none" xmlns="http://www.w3.org/2000/svg">
<path d="M150 0V150H0V0H150ZM73.7705 33.2725C65.8505 33.2725 58.9018 34.2799 52.9258 36.2959C47.0221 38.2399 42.4145 41.1561 39.1025 45.0439C35.8626 48.9319 34.2422 53.6839 34.2422 59.2998C34.2422 66.2117 36.7619 71.7202 41.8018 75.8242C46.8418 79.8562 54.9425 82.3758 66.1025 83.3838L81.2227 84.7881C86.3344 85.2921 89.7899 86.1205 91.5898 87.2725C93.3898 88.4244 94.29 90.0439 94.29 92.1318C94.29 94.8678 92.7061 96.9565 89.5381 98.3965C86.3701 99.7644 82.0499 100.448 76.5781 100.448C72.6182 100.448 69.1619 100.016 66.21 99.1523C63.33 98.2163 61.0258 96.9196 59.2979 95.2637C57.5701 93.6077 56.526 91.6635 56.166 89.4316H33.3779C33.5939 95.0476 35.5025 100.016 39.1025 104.336C42.7025 108.584 47.67 111.896 54.0059 114.272C60.4139 116.576 67.7945 117.728 76.1465 117.728C84.2823 117.728 91.4104 116.576 97.5303 114.272C103.65 111.897 108.402 108.62 111.786 104.444C115.17 100.196 116.862 95.228 116.862 89.54C116.862 84.9322 115.818 81.0803 113.73 77.9844C111.643 74.8884 108.294 72.476 103.687 70.748C99.0785 68.948 92.9218 67.6878 85.2178 66.9678L69.126 65.3477C64.5183 64.9157 61.3146 64.1236 59.5146 62.9717C57.7866 61.8197 56.9219 60.3075 56.9219 58.4355C56.922 55.8438 58.3988 53.8994 61.3506 52.6035C64.3025 51.2357 68.2983 50.5518 73.3379 50.5518C77.0819 50.5518 80.2862 50.9482 82.9502 51.7402C85.6142 52.4602 87.7019 53.5405 89.2139 54.9805C90.7979 56.3485 91.7345 58.0043 92.0225 59.9482H114.702C114.414 54.6203 112.47 49.9402 108.87 45.9082C105.342 41.8762 100.554 38.7801 94.5059 36.6201C88.458 34.3882 81.5463 33.2725 73.7705 33.2725Z" fill="#D4614A"/>
</svg>
