<svg width="618" height="200" viewBox="0 0 618 200" fill="none" xmlns="http://www.w3.org/2000/svg">
<path d="M50.7536 116.48H76.0736C76.4736 118.96 77.6336 121.12 79.5536 122.96C81.4736 124.8 84.0336 126.24 87.2336 127.28C90.5136 128.24 94.3536 128.72 98.7536 128.72C104.834 128.72 109.634 127.96 113.154 126.44C116.674 124.84 118.434 122.52 118.434 119.48C118.434 117.16 117.434 115.36 115.434 114.08C113.434 112.8 109.594 111.88 103.914 111.32L87.1136 109.76C74.7136 108.64 65.7136 105.84 60.1136 101.36C54.5136 96.8 51.7136 90.68 51.7136 83C51.7136 76.76 53.5136 71.48 57.1136 67.16C60.7936 62.84 65.9136 59.6 72.4736 57.44C79.1136 55.2 86.8336 54.08 95.6336 54.08C104.274 54.08 111.954 55.32 118.674 57.8C125.394 60.2 130.714 63.64 134.634 68.12C138.634 72.6 140.794 77.8 141.114 83.72H115.914C115.594 81.56 114.554 79.72 112.794 78.2C111.114 76.6 108.794 75.4 105.834 74.6C102.874 73.72 99.3136 73.28 95.1536 73.28C89.5536 73.28 85.1136 74.04 81.8336 75.56C78.5536 77 76.9136 79.16 76.9136 82.04C76.9136 84.12 77.8736 85.8 79.7936 87.08C81.7936 88.36 85.3536 89.24 90.4736 89.72L108.354 91.52C116.914 92.32 123.754 93.72 128.874 95.72C133.994 97.64 137.714 100.32 140.034 103.76C142.354 107.2 143.514 111.48 143.514 116.6C143.514 122.92 141.634 128.44 137.874 133.16C134.114 137.8 128.834 141.44 122.034 144.08C115.234 146.64 107.314 147.92 98.2736 147.92C88.9936 147.92 80.7936 146.64 73.6736 144.08C66.6336 141.44 61.1136 137.76 57.1136 133.04C53.1136 128.24 50.9936 122.72 50.7536 116.48Z" fill="#D4614A"/>
<path opacity="0.3" d="M177 18H175V182H177V18Z" fill="#D4614A"/>
<path d="M203.152 89.128H209.904C210.011 89.7893 210.32 90.3653 210.832 90.856C211.344 91.3467 212.027 91.7307 212.88 92.008C213.755 92.264 214.779 92.392 215.952 92.392C217.573 92.392 218.853 92.1893 219.792 91.784C220.731 91.3573 221.2 90.7387 221.2 89.928C221.2 89.3093 220.933 88.8293 220.4 88.488C219.867 88.1467 218.843 87.9013 217.328 87.752L212.848 87.336C209.541 87.0373 207.141 86.2907 205.648 85.096C204.155 83.88 203.408 82.248 203.408 80.2C203.408 78.536 203.888 77.128 204.848 75.976C205.829 74.824 207.195 73.96 208.944 73.384C210.715 72.7867 212.773 72.488 215.12 72.488C217.424 72.488 219.472 72.8187 221.264 73.48C223.056 74.12 224.475 75.0373 225.52 76.232C226.587 77.4267 227.163 78.8133 227.248 80.392H220.528C220.443 79.816 220.165 79.3253 219.696 78.92C219.248 78.4933 218.629 78.1733 217.84 77.96C217.051 77.7253 216.101 77.608 214.992 77.608C213.499 77.608 212.315 77.8107 211.44 78.216C210.565 78.6 210.128 79.176 210.128 79.944C210.128 80.4987 210.384 80.9467 210.896 81.288C211.429 81.6293 212.379 81.864 213.744 81.992L218.512 82.472C220.795 82.6853 222.619 83.0587 223.984 83.592C225.349 84.104 226.341 84.8187 226.96 85.736C227.579 86.6533 227.888 87.7947 227.888 89.16C227.888 90.8453 227.387 92.3173 226.384 93.576C225.381 94.8133 223.973 95.784 222.16 96.488C220.347 97.1707 218.235 97.512 215.824 97.512C213.349 97.512 211.163 97.1707 209.264 96.488C207.387 95.784 205.915 94.8027 204.848 93.544C203.781 92.264 203.216 90.792 203.152 89.128ZM257.865 86.952C257.63 89.064 256.905 90.92 255.689 92.52C254.473 94.0987 252.873 95.3253 250.889 96.2C248.926 97.0747 246.665 97.512 244.105 97.512C241.31 97.512 238.867 96.9893 236.777 95.944C234.686 94.8987 233.054 93.4373 231.881 91.56C230.729 89.6827 230.153 87.496 230.153 85C230.153 82.504 230.729 80.3173 231.881 78.44C233.054 76.5627 234.686 75.1013 236.777 74.056C238.867 73.0107 241.31 72.488 244.105 72.488C246.665 72.488 248.926 72.9253 250.889 73.8C252.873 74.6747 254.473 75.912 255.689 77.512C256.905 79.0907 257.63 80.936 257.865 83.048H251.209C250.995 82.024 250.579 81.16 249.961 80.456C249.342 79.7307 248.531 79.176 247.529 78.792C246.547 78.408 245.406 78.216 244.105 78.216C242.611 78.216 241.321 78.4933 240.233 79.048C239.145 79.5813 238.313 80.36 237.737 81.384C237.161 82.3867 236.873 83.592 236.873 85C236.873 86.408 237.161 87.624 237.737 88.648C238.313 89.6507 239.145 90.4293 240.233 90.984C241.321 91.5173 242.611 91.784 244.105 91.784C245.406 91.784 246.547 91.6027 247.529 91.24C248.531 90.8773 249.342 90.3333 249.961 89.608C250.579 88.8827 250.995 87.9973 251.209 86.952H257.865ZM265.66 83.496H274.396C275.462 83.496 276.294 83.2507 276.892 82.76C277.489 82.2693 277.788 81.5867 277.788 80.712C277.788 79.816 277.489 79.1333 276.892 78.664C276.294 78.1733 275.462 77.928 274.396 77.928H264.732L267.708 74.76V97H261.084V73H275.324C277.158 73 278.758 73.3307 280.124 73.992C281.489 74.632 282.556 75.528 283.324 76.68C284.092 77.8107 284.476 79.1547 284.476 80.712C284.476 82.2267 284.092 83.56 283.324 84.712C282.556 85.864 281.489 86.76 280.124 87.4C278.758 88.04 277.158 88.36 275.324 88.36H265.66V83.496ZM269.244 85.768H276.7L285.308 97H277.628L269.244 85.768ZM292.506 92.392V87.048H309.05V92.392H292.506ZM305.274 73L316.186 97H309.114L299.962 75.816H301.882L292.698 97H285.626L296.538 73H305.274ZM331.931 73C333.936 73 335.664 73.3413 337.115 74.024C338.587 74.7067 339.707 75.6773 340.475 76.936C341.243 78.1733 341.627 79.624 341.627 81.288C341.627 82.9307 341.243 84.3813 340.475 85.64C339.707 86.8773 338.587 87.8373 337.115 88.52C335.664 89.2027 333.936 89.544 331.931 89.544H321.531V84.232H331.515C332.581 84.232 333.413 83.976 334.011 83.464C334.608 82.9307 334.907 82.2053 334.907 81.288C334.907 80.3493 334.608 79.624 334.011 79.112C333.413 78.5787 332.581 78.312 331.515 78.312H322.107L325.083 75.24V97H318.459V73H331.931ZM364.94 82.6V87.4H347.372V82.6H364.94ZM351.884 85L350.316 94.632L347.628 91.624H365.996V97H343.692L345.516 85L343.692 73H365.836V78.376H347.628L350.316 75.368L351.884 85ZM374.068 92.392V87.048H390.612V92.392H374.068ZM386.836 73L397.748 97H390.676L381.524 75.816H383.444L374.26 97H367.188L378.1 73H386.836ZM422.261 92.36L420.213 92.776V73H426.645V97H418.293L404.437 77.256L406.453 76.84V97H400.021V73H408.597L422.261 92.36ZM443.083 73C445.92 73 448.406 73.5013 450.539 74.504C452.694 75.4853 454.358 76.8827 455.531 78.696C456.726 80.488 457.323 82.5893 457.323 85C457.323 87.4107 456.726 89.5227 455.531 91.336C454.358 93.128 452.694 94.5253 450.539 95.528C448.406 96.5093 445.92 97 443.083 97H431.115V73H443.083ZM437.707 94.216L434.539 91.112H443.595C445.024 91.112 446.262 90.8667 447.307 90.376C448.374 89.864 449.195 89.1493 449.771 88.232C450.347 87.3147 450.635 86.2373 450.635 85C450.635 83.7413 450.347 82.664 449.771 81.768C449.195 80.8507 448.374 80.1467 447.307 79.656C446.262 79.144 445.024 78.888 443.595 78.888H434.539L437.707 75.784V94.216ZM473.924 97.512C471.087 97.512 468.591 96.9893 466.436 95.944C464.303 94.8987 462.639 93.4373 461.444 91.56C460.271 89.6827 459.684 87.496 459.684 85C459.684 82.504 460.271 80.3173 461.444 78.44C462.639 76.5627 464.303 75.1013 466.436 74.056C468.591 73.0107 471.087 72.488 473.924 72.488C476.783 72.488 479.279 73.0107 481.412 74.056C483.545 75.1013 485.209 76.5627 486.404 78.44C487.599 80.3173 488.196 82.504 488.196 85C488.196 87.496 487.599 89.6827 486.404 91.56C485.209 93.4373 483.545 94.8987 481.412 95.944C479.279 96.9893 476.783 97.512 473.924 97.512ZM473.924 91.592C475.481 91.592 476.825 91.3253 477.956 90.792C479.087 90.2587 479.951 89.5013 480.548 88.52C481.167 87.5387 481.476 86.3653 481.476 85C481.476 83.6347 481.167 82.4613 480.548 81.48C479.951 80.4987 479.087 79.7413 477.956 79.208C476.825 78.6747 475.481 78.408 473.924 78.408C472.388 78.408 471.055 78.6747 469.924 79.208C468.793 79.7413 467.919 80.4987 467.3 81.48C466.681 82.4613 466.372 83.6347 466.372 85C466.372 86.3653 466.681 87.5387 467.3 88.52C467.919 89.5013 468.793 90.2587 469.924 90.792C471.055 91.3253 472.388 91.592 473.924 91.592Z" fill="#D4614A"/>
<path opacity="0.3" d="M582 107H202V109H582V107Z" fill="#D4614A"/>
<path d="M214.023 122.75V131H212.637V123.19L213.088 123.212L209.249 131H207.698L203.859 123.223L204.31 123.201V131H202.924V122.75H205.146L208.842 130.373H208.116L211.801 122.75H214.023ZM220.158 131.154C219.22 131.154 218.395 130.974 217.683 130.615C216.972 130.256 216.418 129.757 216.022 129.119C215.626 128.474 215.428 127.726 215.428 126.875C215.428 126.024 215.626 125.28 216.022 124.642C216.418 123.997 216.972 123.494 217.683 123.135C218.395 122.776 219.22 122.596 220.158 122.596C221.097 122.596 221.922 122.776 222.633 123.135C223.345 123.494 223.898 123.997 224.294 124.642C224.69 125.28 224.888 126.024 224.888 126.875C224.888 127.726 224.69 128.474 224.294 129.119C223.898 129.757 223.345 130.256 222.633 130.615C221.922 130.974 221.097 131.154 220.158 131.154ZM220.158 129.856C220.826 129.856 221.401 129.735 221.885 129.493C222.369 129.251 222.743 128.906 223.007 128.459C223.279 128.012 223.414 127.484 223.414 126.875C223.414 126.266 223.279 125.738 223.007 125.291C222.743 124.844 222.369 124.499 221.885 124.257C221.401 124.015 220.826 123.894 220.158 123.894C219.498 123.894 218.923 124.015 218.431 124.257C217.947 124.499 217.57 124.844 217.298 125.291C217.034 125.738 216.902 126.266 216.902 126.875C216.902 127.484 217.034 128.012 217.298 128.459C217.57 128.906 217.947 129.251 218.431 129.493C218.923 129.735 219.498 129.856 220.158 129.856ZM230.028 122.75C230.967 122.75 231.788 122.922 232.492 123.267C233.203 123.612 233.757 124.096 234.153 124.719C234.549 125.335 234.747 126.054 234.747 126.875C234.747 127.696 234.549 128.419 234.153 129.042C233.757 129.658 233.203 130.138 232.492 130.483C231.788 130.828 230.967 131 230.028 131H226.299V122.75H230.028ZM227.751 130.494L226.948 129.724H230.127C230.758 129.724 231.308 129.607 231.777 129.372C232.254 129.13 232.62 128.796 232.877 128.371C233.141 127.938 233.273 127.44 233.273 126.875C233.273 126.303 233.141 125.804 232.877 125.379C232.62 124.954 232.254 124.624 231.777 124.389C231.308 124.147 230.758 124.026 230.127 124.026H226.948L227.751 123.256V130.494ZM236.788 129.108V127.909H242.552V129.108H236.788ZM240.616 122.75L244.576 131H243.025L239.428 123.3H239.989L236.392 131H234.841L238.801 122.75H240.616ZM247.557 128.316H249.031C249.075 128.646 249.21 128.936 249.438 129.185C249.672 129.434 249.98 129.629 250.362 129.768C250.743 129.9 251.183 129.966 251.682 129.966C252.422 129.966 253.009 129.852 253.442 129.625C253.874 129.39 254.091 129.075 254.091 128.679C254.091 128.356 253.966 128.114 253.717 127.953C253.467 127.792 253.016 127.671 252.364 127.59L250.582 127.359C249.584 127.227 248.858 126.981 248.404 126.622C247.956 126.255 247.733 125.738 247.733 125.071C247.733 124.565 247.883 124.129 248.184 123.762C248.492 123.388 248.924 123.102 249.482 122.904C250.039 122.699 250.692 122.596 251.44 122.596C252.18 122.596 252.837 122.706 253.409 122.926C253.981 123.146 254.435 123.454 254.773 123.85C255.117 124.239 255.304 124.697 255.334 125.225H253.86C253.823 124.932 253.698 124.679 253.486 124.466C253.28 124.253 253.002 124.088 252.65 123.971C252.298 123.846 251.883 123.784 251.407 123.784C250.732 123.784 250.193 123.894 249.79 124.114C249.386 124.334 249.185 124.635 249.185 125.016C249.185 125.309 249.302 125.537 249.537 125.698C249.779 125.852 250.197 125.969 250.791 126.05L252.595 126.303C253.335 126.406 253.918 126.545 254.344 126.721C254.776 126.89 255.084 127.121 255.268 127.414C255.451 127.7 255.543 128.07 255.543 128.525C255.543 129.053 255.381 129.515 255.059 129.911C254.736 130.307 254.281 130.615 253.695 130.835C253.115 131.048 252.437 131.154 251.66 131.154C250.868 131.154 250.167 131.037 249.559 130.802C248.957 130.56 248.481 130.226 248.129 129.801C247.777 129.376 247.586 128.881 247.557 128.316ZM256.893 122.75H258.345V131H256.893V122.75ZM267.836 130.12L267.242 130.186V122.75H268.65V131H266.802L261.016 123.564L261.599 123.498V131H260.191V122.75H262.083L267.836 130.12ZM277.286 130.384H276.604L280.157 122.75H281.708L277.726 131H276.109L272.127 122.75H273.689L277.286 130.384ZM284.048 127.458C284.048 127.949 284.147 128.375 284.345 128.734C284.543 129.093 284.826 129.372 285.192 129.57C285.566 129.761 286.01 129.856 286.523 129.856C287.044 129.856 287.488 129.761 287.854 129.57C288.221 129.372 288.503 129.093 288.701 128.734C288.899 128.375 288.998 127.949 288.998 127.458V122.75H290.45V127.513C290.45 128.239 290.285 128.877 289.955 129.427C289.625 129.97 289.167 130.395 288.58 130.703C287.994 131.004 287.308 131.154 286.523 131.154C285.746 131.154 285.06 131.004 284.466 130.703C283.88 130.395 283.421 129.97 283.091 129.427C282.761 128.877 282.596 128.239 282.596 127.513V122.75H284.048V127.458ZM298.781 126.27V127.48H293.017V126.27H298.781ZM293.974 126.875L293.391 130.56L292.698 129.746H299.1V131H291.906L292.566 126.875L291.906 122.75H299.045V124.004H292.698L293.391 123.19L293.974 126.875ZM302.065 122.75V130.351L301.416 129.724H307.631V131H300.613V122.75H302.065ZM309.603 123.421H311.055V131H309.603V123.421ZM306.193 122.75H314.465V124.026H306.193V122.75ZM315.227 129.108V127.909H320.991V129.108H315.227ZM319.055 122.75L323.015 131H321.464L317.867 123.3H318.428L314.831 131H313.28L317.24 122.75H319.055ZM323.117 128.316H324.591C324.635 128.646 324.771 128.936 324.998 129.185C325.233 129.434 325.541 129.629 325.922 129.768C326.304 129.9 326.744 129.966 327.242 129.966C327.983 129.966 328.57 129.852 329.002 129.625C329.435 129.39 329.651 129.075 329.651 128.679C329.651 128.356 329.527 128.114 329.277 127.953C329.028 127.792 328.577 127.671 327.924 127.59L326.142 127.359C325.145 127.227 324.419 126.981 323.964 126.622C323.517 126.255 323.293 125.738 323.293 125.071C323.293 124.565 323.444 124.129 323.744 123.762C324.052 123.388 324.485 123.102 325.042 122.904C325.6 122.699 326.252 122.596 327 122.596C327.741 122.596 328.397 122.706 328.969 122.926C329.541 123.146 329.996 123.454 330.333 123.85C330.678 124.239 330.865 124.697 330.894 125.225H329.42C329.384 124.932 329.259 124.679 329.046 124.466C328.841 124.253 328.562 124.088 328.21 123.971C327.858 123.846 327.444 123.784 326.967 123.784C326.293 123.784 325.754 123.894 325.35 124.114C324.947 124.334 324.745 124.635 324.745 125.016C324.745 125.309 324.863 125.537 325.097 125.698C325.339 125.852 325.757 125.969 326.351 126.05L328.155 126.303C328.896 126.406 329.479 126.545 329.904 126.721C330.337 126.89 330.645 127.121 330.828 127.414C331.012 127.7 331.103 128.07 331.103 128.525C331.103 129.053 330.942 129.515 330.619 129.911C330.297 130.307 329.842 130.615 329.255 130.835C328.676 131.048 327.998 131.154 327.22 131.154C326.428 131.154 325.728 131.037 325.119 130.802C324.518 130.56 324.041 130.226 323.689 129.801C323.337 129.376 323.147 128.881 323.117 128.316Z" fill="#3D4FD6"/>
<path d="M155 58C158.866 58 162 54.866 162 51C162 47.134 158.866 44 155 44C151.134 44 148 47.134 148 51C148 54.866 151.134 58 155 58Z" fill="#3D4FD6"/>
</svg>
