<svg width="700" height="200" viewBox="0 0 700 200" fill="none" xmlns="http://www.w3.org/2000/svg">
<g clip-path="url(#clip0_3_67)">
<path d="M34 1H29V201H34V1Z" fill="#D4614A"/>
<path d="M64.929 102.256H78.433C78.6463 103.579 79.265 104.731 80.289 105.712C81.313 106.693 82.6783 107.461 84.385 108.016C86.1343 108.528 88.1823 108.784 90.529 108.784C93.7717 108.784 96.3317 108.379 98.209 107.568C100.086 106.715 101.025 105.477 101.025 103.856C101.025 102.619 100.492 101.659 99.425 100.976C98.3583 100.293 96.3103 99.8027 93.281 99.504L84.321 98.672C77.7077 98.0747 72.9077 96.5813 69.921 94.192C66.9343 91.76 65.441 88.496 65.441 84.4C65.441 81.072 66.401 78.256 68.321 75.952C70.2837 73.648 73.0143 71.92 76.513 70.768C80.0543 69.5733 84.1717 68.976 88.865 68.976C93.473 68.976 97.569 69.6373 101.153 70.96C104.737 72.24 107.574 74.0747 109.665 76.464C111.798 78.8533 112.95 81.6267 113.121 84.784H99.681C99.5103 83.632 98.9557 82.6507 98.017 81.84C97.121 80.9867 95.8837 80.3467 94.305 79.92C92.7263 79.4507 90.8277 79.216 88.609 79.216C85.6223 79.216 83.2543 79.6213 81.505 80.432C79.7557 81.2 78.881 82.352 78.881 83.888C78.881 84.9973 79.393 85.8933 80.417 86.576C81.4837 87.2587 83.3823 87.728 86.113 87.984L95.649 88.944C100.214 89.3707 103.862 90.1173 106.593 91.184C109.324 92.208 111.308 93.6373 112.545 95.472C113.782 97.3067 114.401 99.5893 114.401 102.32C114.401 105.691 113.398 108.635 111.393 111.152C109.388 113.627 106.572 115.568 102.945 116.976C99.3183 118.341 95.0943 119.024 90.273 119.024C85.3237 119.024 80.9503 118.341 77.153 116.976C73.3983 115.568 70.4543 113.605 68.321 111.088C66.1877 108.528 65.057 105.584 64.929 102.256ZM174.355 97.904C173.885 102.128 172.435 105.84 170.003 109.04C167.571 112.197 164.371 114.651 160.403 116.4C156.477 118.149 151.955 119.024 146.835 119.024C141.245 119.024 136.36 117.979 132.179 115.888C127.997 113.797 124.733 110.875 122.387 107.12C120.083 103.365 118.931 98.992 118.931 94C118.931 89.008 120.083 84.6347 122.387 80.88C124.733 77.1253 127.997 74.2027 132.179 72.112C136.36 70.0213 141.245 68.976 146.835 68.976C151.955 68.976 156.477 69.8507 160.403 71.6C164.371 73.3493 167.571 75.824 170.003 79.024C172.435 82.1813 173.885 85.872 174.355 90.096H161.043C160.616 88.048 159.784 86.32 158.547 84.912C157.309 83.4613 155.688 82.352 153.683 81.584C151.72 80.816 149.437 80.432 146.835 80.432C143.848 80.432 141.267 80.9867 139.091 82.096C136.915 83.1627 135.251 84.72 134.099 86.768C132.947 88.7733 132.371 91.184 132.371 94C132.371 96.816 132.947 99.248 134.099 101.296C135.251 103.301 136.915 104.859 139.091 105.968C141.267 107.035 143.848 107.568 146.835 107.568C149.437 107.568 151.72 107.205 153.683 106.48C155.688 105.755 157.309 104.667 158.547 103.216C159.784 101.765 160.616 99.9947 161.043 97.904H174.355ZM189.945 90.992H207.417C209.55 90.992 211.214 90.5013 212.409 89.52C213.603 88.5387 214.201 87.1733 214.201 85.424C214.201 83.632 213.603 82.2667 212.409 81.328C211.214 80.3467 209.55 79.856 207.417 79.856H188.089L194.041 73.52V118H180.793V70H209.273C212.942 70 216.142 70.6613 218.873 71.984C221.603 73.264 223.737 75.056 225.273 77.36C226.809 79.6213 227.577 82.3093 227.577 85.424C227.577 88.4533 226.809 91.12 225.273 93.424C223.737 95.728 221.603 97.52 218.873 98.8C216.142 100.08 212.942 100.72 209.273 100.72H189.945V90.992ZM197.113 95.536H212.025L229.241 118H213.881L197.113 95.536ZM243.637 108.784V98.096H276.725V108.784H243.637ZM269.173 70L290.997 118H276.853L258.549 75.632H262.389L244.021 118H229.877L251.701 70H269.173ZM322.487 70C326.497 70 329.953 70.6827 332.855 72.048C335.799 73.4133 338.039 75.3547 339.575 77.872C341.111 80.3467 341.879 83.248 341.879 86.576C341.879 89.8613 341.111 92.7627 339.575 95.28C338.039 97.7547 335.799 99.6747 332.855 101.04C329.953 102.405 326.497 103.088 322.487 103.088H301.687V92.464H321.655C323.788 92.464 325.452 91.952 326.647 90.928C327.841 89.8613 328.439 88.4107 328.439 86.576C328.439 84.6987 327.841 83.248 326.647 82.224C325.452 81.1573 323.788 80.624 321.655 80.624H302.839L308.791 74.48V118H295.543V70H322.487ZM388.504 89.2V98.8H353.368V89.2H388.504ZM362.392 94L359.256 113.264L353.88 107.248H390.616V118H346.008L349.656 94L346.008 70H390.296V80.752H353.88L359.256 74.736L362.392 94ZM406.762 108.784V98.096H439.85V108.784H406.762ZM432.298 70L454.122 118H439.978L421.674 75.632H425.514L407.146 118H393.002L414.826 70H432.298ZM503.148 108.72L499.052 109.552V70H511.916V118H495.212L467.5 78.512L471.532 77.68V118H458.668V70H475.82L503.148 108.72ZM544.791 70C550.466 70 555.436 71.0027 559.703 73.008C564.012 74.9707 567.34 77.7653 569.687 81.392C572.076 84.976 573.271 89.1787 573.271 94C573.271 98.8213 572.076 103.045 569.687 106.672C567.34 110.256 564.012 113.051 559.703 115.056C555.436 117.019 550.466 118 544.791 118H520.855V70H544.791ZM534.039 112.432L527.703 106.224H545.815C548.674 106.224 551.148 105.733 553.239 104.752C555.372 103.728 557.015 102.299 558.167 100.464C559.319 98.6293 559.895 96.4747 559.895 94C559.895 91.4827 559.319 89.328 558.167 87.536C557.015 85.7013 555.372 84.2933 553.239 83.312C551.148 82.288 548.674 81.776 545.815 81.776H527.703L534.039 75.568V112.432ZM606.473 119.024C600.798 119.024 595.806 117.979 591.497 115.888C587.23 113.797 583.902 110.875 581.513 107.12C579.166 103.365 577.993 98.992 577.993 94C577.993 89.008 579.166 84.6347 581.513 80.88C583.902 77.1253 587.23 74.2027 591.497 72.112C595.806 70.0213 600.798 68.976 606.473 68.976C612.19 68.976 617.182 70.0213 621.449 72.112C625.716 74.2027 629.044 77.1253 631.433 80.88C633.822 84.6347 635.017 89.008 635.017 94C635.017 98.992 633.822 103.365 631.433 107.12C629.044 110.875 625.716 113.797 621.449 115.888C617.182 117.979 612.19 119.024 606.473 119.024ZM606.473 107.184C609.588 107.184 612.276 106.651 614.537 105.584C616.798 104.517 618.526 103.003 619.721 101.04C620.958 99.0773 621.577 96.7307 621.577 94C621.577 91.2693 620.958 88.9227 619.721 86.96C618.526 84.9973 616.798 83.4827 614.537 82.416C612.276 81.3493 609.588 80.816 606.473 80.816C603.401 80.816 600.734 81.3493 598.473 82.416C596.212 83.4827 594.462 84.9973 593.225 86.96C591.988 88.9227 591.369 91.2693 591.369 94C591.369 96.7307 591.988 99.0773 593.225 101.04C594.462 103.003 596.212 104.517 598.473 105.584C600.734 106.651 603.401 107.184 606.473 107.184Z" fill="#D4614A"/>
<path opacity="0.25" d="M620 132H80V134H620V132Z" fill="#D4614A" fill-opacity="0.86"/>
<path d="M253.606 156V171H251.086V156.8L251.906 156.84L244.926 171H242.106L235.126 156.86L235.946 156.82V171H233.426V156H237.466L244.186 169.86H242.866L249.566 156H253.606ZM264.761 171.28C263.055 171.28 261.555 170.953 260.261 170.3C258.968 169.647 257.961 168.74 257.241 167.58C256.521 166.407 256.161 165.047 256.161 163.5C256.161 161.953 256.521 160.6 257.241 159.44C257.961 158.267 258.968 157.353 260.261 156.7C261.555 156.047 263.055 155.72 264.761 155.72C266.468 155.72 267.968 156.047 269.261 156.7C270.555 157.353 271.561 158.267 272.281 159.44C273.001 160.6 273.361 161.953 273.361 163.5C273.361 165.047 273.001 166.407 272.281 167.58C271.561 168.74 270.555 169.647 269.261 170.3C267.968 170.953 266.468 171.28 264.761 171.28ZM264.761 168.92C265.975 168.92 267.021 168.7 267.901 168.26C268.781 167.82 269.461 167.193 269.941 166.38C270.435 165.567 270.681 164.607 270.681 163.5C270.681 162.393 270.435 161.433 269.941 160.62C269.461 159.807 268.781 159.18 267.901 158.74C267.021 158.3 265.975 158.08 264.761 158.08C263.561 158.08 262.515 158.3 261.621 158.74C260.741 159.18 260.055 159.807 259.561 160.62C259.081 161.433 258.841 162.393 258.841 163.5C258.841 164.607 259.081 165.567 259.561 166.38C260.055 167.193 260.741 167.82 261.621 168.26C262.515 168.7 263.561 168.92 264.761 168.92ZM282.706 156C284.413 156 285.906 156.313 287.186 156.94C288.479 157.567 289.486 158.447 290.206 159.58C290.926 160.7 291.286 162.007 291.286 163.5C291.286 164.993 290.926 166.307 290.206 167.44C289.486 168.56 288.479 169.433 287.186 170.06C285.906 170.687 284.413 171 282.706 171H275.926V156H282.706ZM278.566 170.08L277.106 168.68H282.886C284.033 168.68 285.033 168.467 285.886 168.04C286.753 167.6 287.419 166.993 287.886 166.22C288.366 165.433 288.606 164.527 288.606 163.5C288.606 162.46 288.366 161.553 287.886 160.78C287.419 160.007 286.753 159.407 285.886 158.98C285.033 158.54 284.033 158.32 282.886 158.32H277.106L278.566 156.92V170.08ZM294.996 167.56V165.38H305.476V167.56H294.996ZM301.956 156L309.156 171H306.336L299.796 157H300.816L294.276 171H291.456L298.656 156H301.956ZM314.576 166.12H317.256C317.336 166.72 317.583 167.247 317.996 167.7C318.423 168.153 318.983 168.507 319.676 168.76C320.37 169 321.17 169.12 322.076 169.12C323.423 169.12 324.49 168.913 325.276 168.5C326.063 168.073 326.456 167.5 326.456 166.78C326.456 166.193 326.23 165.753 325.776 165.46C325.323 165.167 324.503 164.947 323.316 164.8L320.076 164.38C318.263 164.14 316.943 163.693 316.116 163.04C315.303 162.373 314.896 161.433 314.896 160.22C314.896 159.3 315.17 158.507 315.716 157.84C316.276 157.16 317.063 156.64 318.076 156.28C319.09 155.907 320.276 155.72 321.636 155.72C322.983 155.72 324.176 155.92 325.216 156.32C326.256 156.72 327.083 157.28 327.696 158C328.323 158.707 328.663 159.54 328.716 160.5H326.036C325.97 159.967 325.743 159.507 325.356 159.12C324.983 158.733 324.476 158.433 323.836 158.22C323.196 157.993 322.443 157.88 321.576 157.88C320.35 157.88 319.37 158.08 318.636 158.48C317.903 158.88 317.536 159.427 317.536 160.12C317.536 160.653 317.75 161.067 318.176 161.36C318.616 161.64 319.376 161.853 320.456 162L323.736 162.46C325.083 162.647 326.143 162.9 326.916 163.22C327.703 163.527 328.263 163.947 328.596 164.48C328.93 165 329.096 165.673 329.096 166.5C329.096 167.46 328.803 168.3 328.216 169.02C327.63 169.74 326.803 170.3 325.736 170.7C324.683 171.087 323.45 171.28 322.036 171.28C320.596 171.28 319.323 171.067 318.216 170.64C317.123 170.2 316.256 169.593 315.616 168.82C314.976 168.047 314.63 167.147 314.576 166.12ZM331.551 156H334.191V171H331.551V156ZM351.447 169.4L350.367 169.52V156H352.927V171H349.567L339.047 157.48L340.107 157.36V171H337.547V156H340.987L351.447 169.4ZM368.629 169.88H367.389L373.849 156H376.669L369.429 171H366.489L359.249 156H362.089L368.629 169.88ZM380.925 164.56C380.925 165.453 381.105 166.227 381.465 166.88C381.825 167.533 382.338 168.04 383.005 168.4C383.685 168.747 384.491 168.92 385.425 168.92C386.371 168.92 387.178 168.747 387.845 168.4C388.511 168.04 389.025 167.533 389.385 166.88C389.745 166.227 389.925 165.453 389.925 164.56V156H392.565V164.66C392.565 165.98 392.265 167.14 391.665 168.14C391.065 169.127 390.231 169.9 389.165 170.46C388.098 171.007 386.851 171.28 385.425 171.28C384.011 171.28 382.765 171.007 381.685 170.46C380.618 169.9 379.785 169.127 379.185 168.14C378.585 167.14 378.285 165.98 378.285 164.66V156H380.925V164.56ZM407.711 162.4V164.6H397.231V162.4H407.711ZM398.971 163.5L397.911 170.2L396.651 168.72H408.291V171H395.211L396.411 163.5L395.211 156H408.191V158.28H396.651L397.911 156.8L398.971 163.5ZM413.683 156V169.82L412.503 168.68H423.803V171H411.043V156H413.683ZM427.387 157.22H430.027V171H427.387V157.22ZM421.187 156H436.227V158.32H421.187V156ZM437.614 167.56V165.38H448.094V167.56H437.614ZM444.574 156L451.774 171H448.954L442.414 157H443.434L436.894 171H434.074L441.274 156H444.574ZM451.959 166.12H454.639C454.719 166.72 454.966 167.247 455.379 167.7C455.806 168.153 456.366 168.507 457.059 168.76C457.753 169 458.553 169.12 459.459 169.12C460.806 169.12 461.873 168.913 462.659 168.5C463.446 168.073 463.839 167.5 463.839 166.78C463.839 166.193 463.613 165.753 463.159 165.46C462.706 165.167 461.886 164.947 460.699 164.8L457.459 164.38C455.646 164.14 454.326 163.693 453.499 163.04C452.686 162.373 452.279 161.433 452.279 160.22C452.279 159.3 452.553 158.507 453.099 157.84C453.659 157.16 454.446 156.64 455.459 156.28C456.473 155.907 457.659 155.72 459.019 155.72C460.366 155.72 461.559 155.92 462.599 156.32C463.639 156.72 464.466 157.28 465.079 158C465.706 158.707 466.046 159.54 466.099 160.5H463.419C463.353 159.967 463.126 159.507 462.739 159.12C462.366 158.733 461.859 158.433 461.219 158.22C460.579 157.993 459.826 157.88 458.959 157.88C457.733 157.88 456.753 158.08 456.019 158.48C455.286 158.88 454.919 159.427 454.919 160.12C454.919 160.653 455.133 161.067 455.559 161.36C455.999 161.64 456.759 161.853 457.839 162L461.119 162.46C462.466 162.647 463.526 162.9 464.299 163.22C465.086 163.527 465.646 163.947 465.979 164.48C466.313 165 466.479 165.673 466.479 166.5C466.479 167.46 466.186 168.3 465.599 169.02C465.013 169.74 464.186 170.3 463.119 170.7C462.066 171.087 460.833 171.28 459.419 171.28C457.979 171.28 456.706 171.067 455.599 170.64C454.506 170.2 453.639 169.593 452.999 168.82C452.359 168.047 452.013 167.147 451.959 166.12Z" fill="#3D4FD6"/>
</g>
<defs>
<clipPath id="clip0_3_67">
<rect width="700" height="200" fill="white"/>
</clipPath>
</defs>
</svg>
