<svg width="618" height="200" viewBox="0 0 618 200" fill="none" xmlns="http://www.w3.org/2000/svg">
<path d="M50.7536 116.48H76.0736C76.4736 118.96 77.6336 121.12 79.5536 122.96C81.4736 124.8 84.0336 126.24 87.2336 127.28C90.5136 128.24 94.3536 128.72 98.7536 128.72C104.834 128.72 109.634 127.96 113.154 126.44C116.674 124.84 118.434 122.52 118.434 119.48C118.434 117.16 117.434 115.36 115.434 114.08C113.434 112.8 109.594 111.88 103.914 111.32L87.1136 109.76C74.7136 108.64 65.7136 105.84 60.1136 101.36C54.5136 96.8 51.7136 90.68 51.7136 83C51.7136 76.76 53.5136 71.48 57.1136 67.16C60.7936 62.84 65.9136 59.6 72.4736 57.44C79.1136 55.2 86.8336 54.08 95.6336 54.08C104.274 54.08 111.954 55.32 118.674 57.8C125.394 60.2 130.714 63.64 134.634 68.12C138.634 72.6 140.794 77.8 141.114 83.72H115.914C115.594 81.56 114.554 79.72 112.794 78.2C111.114 76.6 108.794 75.4 105.834 74.6C102.874 73.72 99.3136 73.28 95.1536 73.28C89.5536 73.28 85.1136 74.04 81.8336 75.56C78.5536 77 76.9136 79.16 76.9136 82.04C76.9136 84.12 77.8736 85.8 79.7936 87.08C81.7936 88.36 85.3536 89.24 90.4736 89.72L108.354 91.52C116.914 92.32 123.754 93.72 128.874 95.72C133.994 97.64 137.714 100.32 140.034 103.76C142.354 107.2 143.514 111.48 143.514 116.6C143.514 122.92 141.634 128.44 137.874 133.16C134.114 137.8 128.834 141.44 122.034 144.08C115.234 146.64 107.314 147.92 98.2736 147.92C88.9936 147.92 80.7936 146.64 73.6736 144.08C66.6336 141.44 61.1136 137.76 57.1136 133.04C53.1136 128.24 50.9936 122.72 50.7536 116.48Z" fill="#D4614A"/>
<path d="M177 18H175V182H177V18Z" fill="#3D4FD6"/>
<path d="M19 18H17V182H19V18Z" fill="#3D4FD6"/>
<path d="M203.152 89.128H209.904C210.011 89.7893 210.32 90.3653 210.832 90.856C211.344 91.3467 212.027 91.7307 212.88 92.008C213.755 92.264 214.779 92.392 215.952 92.392C217.573 92.392 218.853 92.1893 219.792 91.784C220.731 91.3573 221.2 90.7387 221.2 89.928C221.2 89.3093 220.933 88.8293 220.4 88.488C219.867 88.1467 218.843 87.9013 217.328 87.752L212.848 87.336C209.541 87.0373 207.141 86.2907 205.648 85.096C204.155 83.88 203.408 82.248 203.408 80.2C203.408 78.536 203.888 77.128 204.848 75.976C205.829 74.824 207.195 73.96 208.944 73.384C210.715 72.7867 212.773 72.488 215.12 72.488C217.424 72.488 219.472 72.8187 221.264 73.48C223.056 74.12 224.475 75.0373 225.52 76.232C226.587 77.4267 227.163 78.8133 227.248 80.392H220.528C220.443 79.816 220.165 79.3253 219.696 78.92C219.248 78.4933 218.629 78.1733 217.84 77.96C217.051 77.7253 216.101 77.608 214.992 77.608C213.499 77.608 212.315 77.8107 211.44 78.216C210.565 78.6 210.128 79.176 210.128 79.944C210.128 80.4987 210.384 80.9467 210.896 81.288C211.429 81.6293 212.379 81.864 213.744 81.992L218.512 82.472C220.795 82.6853 222.619 83.0587 223.984 83.592C225.349 84.104 226.341 84.8187 226.96 85.736C227.579 86.6533 227.888 87.7947 227.888 89.16C227.888 90.8453 227.387 92.3173 226.384 93.576C225.381 94.8133 223.973 95.784 222.16 96.488C220.347 97.1707 218.235 97.512 215.824 97.512C213.349 97.512 211.163 97.1707 209.264 96.488C207.387 95.784 205.915 94.8027 204.848 93.544C203.781 92.264 203.216 90.792 203.152 89.128ZM257.865 86.952C257.63 89.064 256.905 90.92 255.689 92.52C254.473 94.0987 252.873 95.3253 250.889 96.2C248.926 97.0747 246.665 97.512 244.105 97.512C241.31 97.512 238.867 96.9893 236.777 95.944C234.686 94.8987 233.054 93.4373 231.881 91.56C230.729 89.6827 230.153 87.496 230.153 85C230.153 82.504 230.729 80.3173 231.881 78.44C233.054 76.5627 234.686 75.1013 236.777 74.056C238.867 73.0107 241.31 72.488 244.105 72.488C246.665 72.488 248.926 72.9253 250.889 73.8C252.873 74.6747 254.473 75.912 255.689 77.512C256.905 79.0907 257.63 80.936 257.865 83.048H251.209C250.995 82.024 250.579 81.16 249.961 80.456C249.342 79.7307 248.531 79.176 247.529 78.792C246.547 78.408 245.406 78.216 244.105 78.216C242.611 78.216 241.321 78.4933 240.233 79.048C239.145 79.5813 238.313 80.36 237.737 81.384C237.161 82.3867 236.873 83.592 236.873 85C236.873 86.408 237.161 87.624 237.737 88.648C238.313 89.6507 239.145 90.4293 240.233 90.984C241.321 91.5173 242.611 91.784 244.105 91.784C245.406 91.784 246.547 91.6027 247.529 91.24C248.531 90.8773 249.342 90.3333 249.961 89.608C250.579 88.8827 250.995 87.9973 251.209 86.952H257.865ZM265.66 83.496H274.396C275.462 83.496 276.294 83.2507 276.892 82.76C277.489 82.2693 277.788 81.5867 277.788 80.712C277.788 79.816 277.489 79.1333 276.892 78.664C276.294 78.1733 275.462 77.928 274.396 77.928H264.732L267.708 74.76V97H261.084V73H275.324C277.158 73 278.758 73.3307 280.124 73.992C281.489 74.632 282.556 75.528 283.324 76.68C284.092 77.8107 284.476 79.1547 284.476 80.712C284.476 82.2267 284.092 83.56 283.324 84.712C282.556 85.864 281.489 86.76 280.124 87.4C278.758 88.04 277.158 88.36 275.324 88.36H265.66V83.496ZM269.244 85.768H276.7L285.308 97H277.628L269.244 85.768ZM292.506 92.392V87.048H309.05V92.392H292.506ZM305.274 73L316.186 97H309.114L299.962 75.816H301.882L292.698 97H285.626L296.538 73H305.274ZM331.931 73C333.936 73 335.664 73.3413 337.115 74.024C338.587 74.7067 339.707 75.6773 340.475 76.936C341.243 78.1733 341.627 79.624 341.627 81.288C341.627 82.9307 341.243 84.3813 340.475 85.64C339.707 86.8773 338.587 87.8373 337.115 88.52C335.664 89.2027 333.936 89.544 331.931 89.544H321.531V84.232H331.515C332.581 84.232 333.413 83.976 334.011 83.464C334.608 82.9307 334.907 82.2053 334.907 81.288C334.907 80.3493 334.608 79.624 334.011 79.112C333.413 78.5787 332.581 78.312 331.515 78.312H322.107L325.083 75.24V97H318.459V73H331.931ZM364.94 82.6V87.4H347.372V82.6H364.94ZM351.884 85L350.316 94.632L347.628 91.624H365.996V97H343.692L345.516 85L343.692 73H365.836V78.376H347.628L350.316 75.368L351.884 85ZM374.068 92.392V87.048H390.612V92.392H374.068ZM386.836 73L397.748 97H390.676L381.524 75.816H383.444L374.26 97H367.188L378.1 73H386.836ZM422.261 92.36L420.213 92.776V73H426.645V97H418.293L404.437 77.256L406.453 76.84V97H400.021V73H408.597L422.261 92.36ZM443.083 73C445.92 73 448.406 73.5013 450.539 74.504C452.694 75.4853 454.358 76.8827 455.531 78.696C456.726 80.488 457.323 82.5893 457.323 85C457.323 87.4107 456.726 89.5227 455.531 91.336C454.358 93.128 452.694 94.5253 450.539 95.528C448.406 96.5093 445.92 97 443.083 97H431.115V73H443.083ZM437.707 94.216L434.539 91.112H443.595C445.024 91.112 446.262 90.8667 447.307 90.376C448.374 89.864 449.195 89.1493 449.771 88.232C450.347 87.3147 450.635 86.2373 450.635 85C450.635 83.7413 450.347 82.664 449.771 81.768C449.195 80.8507 448.374 80.1467 447.307 79.656C446.262 79.144 445.024 78.888 443.595 78.888H434.539L437.707 75.784V94.216ZM473.924 97.512C471.087 97.512 468.591 96.9893 466.436 95.944C464.303 94.8987 462.639 93.4373 461.444 91.56C460.271 89.6827 459.684 87.496 459.684 85C459.684 82.504 460.271 80.3173 461.444 78.44C462.639 76.5627 464.303 75.1013 466.436 74.056C468.591 73.0107 471.087 72.488 473.924 72.488C476.783 72.488 479.279 73.0107 481.412 74.056C483.545 75.1013 485.209 76.5627 486.404 78.44C487.599 80.3173 488.196 82.504 488.196 85C488.196 87.496 487.599 89.6827 486.404 91.56C485.209 93.4373 483.545 94.8987 481.412 95.944C479.279 96.9893 476.783 97.512 473.924 97.512ZM473.924 91.592C475.481 91.592 476.825 91.3253 477.956 90.792C479.087 90.2587 479.951 89.5013 480.548 88.52C481.167 87.5387 481.476 86.3653 481.476 85C481.476 83.6347 481.167 82.4613 480.548 81.48C479.951 80.4987 479.087 79.7413 477.956 79.208C476.825 78.6747 475.481 78.408 473.924 78.408C472.388 78.408 471.055 78.6747 469.924 79.208C468.793 79.7413 467.919 80.4987 467.3 81.48C466.681 82.4613 466.372 83.6347 466.372 85C466.372 86.3653 466.681 87.5387 467.3 88.52C467.919 89.5013 468.793 90.2587 469.924 90.792C471.055 91.3253 472.388 91.592 473.924 91.592Z" fill="#D4614A"/>
<path opacity="0.3" d="M582 107H202V109H582V107Z" fill="#D4614A"/>
<path d="M223.86 125V140H221.34V125.8L222.16 125.84L215.18 140H212.36L205.38 125.86L206.2 125.82V140H203.68V125H207.72L214.44 138.86H213.12L219.82 125H223.86ZM235.015 140.28C233.308 140.28 231.808 139.953 230.515 139.3C229.222 138.647 228.215 137.74 227.495 136.58C226.775 135.407 226.415 134.047 226.415 132.5C226.415 130.953 226.775 129.6 227.495 128.44C228.215 127.267 229.222 126.353 230.515 125.7C231.808 125.047 233.308 124.72 235.015 124.72C236.722 124.72 238.222 125.047 239.515 125.7C240.808 126.353 241.815 127.267 242.535 128.44C243.255 129.6 243.615 130.953 243.615 132.5C243.615 134.047 243.255 135.407 242.535 136.58C241.815 137.74 240.808 138.647 239.515 139.3C238.222 139.953 236.722 140.28 235.015 140.28ZM235.015 137.92C236.228 137.92 237.275 137.7 238.155 137.26C239.035 136.82 239.715 136.193 240.195 135.38C240.688 134.567 240.935 133.607 240.935 132.5C240.935 131.393 240.688 130.433 240.195 129.62C239.715 128.807 239.035 128.18 238.155 127.74C237.275 127.3 236.228 127.08 235.015 127.08C233.815 127.08 232.768 127.3 231.875 127.74C230.995 128.18 230.308 128.807 229.815 129.62C229.335 130.433 229.095 131.393 229.095 132.5C229.095 133.607 229.335 134.567 229.815 135.38C230.308 136.193 230.995 136.82 231.875 137.26C232.768 137.7 233.815 137.92 235.015 137.92ZM252.96 125C254.667 125 256.16 125.313 257.44 125.94C258.733 126.567 259.74 127.447 260.46 128.58C261.18 129.7 261.54 131.007 261.54 132.5C261.54 133.993 261.18 135.307 260.46 136.44C259.74 137.56 258.733 138.433 257.44 139.06C256.16 139.687 254.667 140 252.96 140H246.18V125H252.96ZM248.82 139.08L247.36 137.68H253.14C254.287 137.68 255.287 137.467 256.14 137.04C257.007 136.6 257.673 135.993 258.14 135.22C258.62 134.433 258.86 133.527 258.86 132.5C258.86 131.46 258.62 130.553 258.14 129.78C257.673 129.007 257.007 128.407 256.14 127.98C255.287 127.54 254.287 127.32 253.14 127.32H247.36L248.82 125.92V139.08ZM265.25 136.56V134.38H275.73V136.56H265.25ZM272.21 125L279.41 140H276.59L270.05 126H271.07L264.53 140H261.71L268.91 125H272.21ZM284.83 135.12H287.51C287.59 135.72 287.837 136.247 288.25 136.7C288.677 137.153 289.237 137.507 289.93 137.76C290.624 138 291.424 138.12 292.33 138.12C293.677 138.12 294.744 137.913 295.53 137.5C296.317 137.073 296.71 136.5 296.71 135.78C296.71 135.193 296.484 134.753 296.03 134.46C295.577 134.167 294.757 133.947 293.57 133.8L290.33 133.38C288.517 133.14 287.197 132.693 286.37 132.04C285.557 131.373 285.15 130.433 285.15 129.22C285.15 128.3 285.424 127.507 285.97 126.84C286.53 126.16 287.317 125.64 288.33 125.28C289.344 124.907 290.53 124.72 291.89 124.72C293.237 124.72 294.43 124.92 295.47 125.32C296.51 125.72 297.337 126.28 297.95 127C298.577 127.707 298.917 128.54 298.97 129.5H296.29C296.224 128.967 295.997 128.507 295.61 128.12C295.237 127.733 294.73 127.433 294.09 127.22C293.45 126.993 292.697 126.88 291.83 126.88C290.604 126.88 289.624 127.08 288.89 127.48C288.157 127.88 287.79 128.427 287.79 129.12C287.79 129.653 288.004 130.067 288.43 130.36C288.87 130.64 289.63 130.853 290.71 131L293.99 131.46C295.337 131.647 296.397 131.9 297.17 132.22C297.957 132.527 298.517 132.947 298.85 133.48C299.184 134 299.35 134.673 299.35 135.5C299.35 136.46 299.057 137.3 298.47 138.02C297.884 138.74 297.057 139.3 295.99 139.7C294.937 140.087 293.704 140.28 292.29 140.28C290.85 140.28 289.577 140.067 288.47 139.64C287.377 139.2 286.51 138.593 285.87 137.82C285.23 137.047 284.884 136.147 284.83 135.12ZM301.805 125H304.445V140H301.805V125ZM321.701 138.4L320.621 138.52V125H323.181V140H319.821L309.301 126.48L310.361 126.36V140H307.801V125H311.241L321.701 138.4ZM338.883 138.88H337.643L344.103 125H346.923L339.683 140H336.743L329.503 125H332.343L338.883 138.88ZM351.179 133.56C351.179 134.453 351.359 135.227 351.719 135.88C352.079 136.533 352.592 137.04 353.259 137.4C353.939 137.747 354.745 137.92 355.679 137.92C356.625 137.92 357.432 137.747 358.099 137.4C358.765 137.04 359.279 136.533 359.639 135.88C359.999 135.227 360.179 134.453 360.179 133.56V125H362.819V133.66C362.819 134.98 362.519 136.14 361.919 137.14C361.319 138.127 360.485 138.9 359.419 139.46C358.352 140.007 357.105 140.28 355.679 140.28C354.265 140.28 353.019 140.007 351.939 139.46C350.872 138.9 350.039 138.127 349.439 137.14C348.839 136.14 348.539 134.98 348.539 133.66V125H351.179V133.56ZM377.965 131.4V133.6H367.485V131.4H377.965ZM369.225 132.5L368.165 139.2L366.905 137.72H378.545V140H365.465L366.665 132.5L365.465 125H378.445V127.28H366.905L368.165 125.8L369.225 132.5ZM383.937 125V138.82L382.757 137.68H394.057V140H381.297V125H383.937ZM397.641 126.22H400.281V140H397.641V126.22ZM391.441 125H406.481V127.32H391.441V125ZM407.868 136.56V134.38H418.348V136.56H407.868ZM414.828 125L422.028 140H419.208L412.668 126H413.688L407.148 140H404.328L411.528 125H414.828ZM422.213 135.12H424.893C424.973 135.72 425.22 136.247 425.633 136.7C426.06 137.153 426.62 137.507 427.313 137.76C428.006 138 428.806 138.12 429.713 138.12C431.06 138.12 432.126 137.913 432.913 137.5C433.7 137.073 434.093 136.5 434.093 135.78C434.093 135.193 433.866 134.753 433.413 134.46C432.96 134.167 432.14 133.947 430.953 133.8L427.713 133.38C425.9 133.14 424.58 132.693 423.753 132.04C422.94 131.373 422.533 130.433 422.533 129.22C422.533 128.3 422.806 127.507 423.353 126.84C423.913 126.16 424.7 125.64 425.713 125.28C426.726 124.907 427.913 124.72 429.273 124.72C430.62 124.72 431.813 124.92 432.853 125.32C433.893 125.72 434.72 126.28 435.333 127C435.96 127.707 436.3 128.54 436.353 129.5H433.673C433.606 128.967 433.38 128.507 432.993 128.12C432.62 127.733 432.113 127.433 431.473 127.22C430.833 126.993 430.08 126.88 429.213 126.88C427.986 126.88 427.006 127.08 426.273 127.48C425.54 127.88 425.173 128.427 425.173 129.12C425.173 129.653 425.386 130.067 425.813 130.36C426.253 130.64 427.013 130.853 428.093 131L431.373 131.46C432.72 131.647 433.78 131.9 434.553 132.22C435.34 132.527 435.9 132.947 436.233 133.48C436.566 134 436.733 134.673 436.733 135.5C436.733 136.46 436.44 137.3 435.853 138.02C435.266 138.74 434.44 139.3 433.373 139.7C432.32 140.087 431.086 140.28 429.673 140.28C428.233 140.28 426.96 140.067 425.853 139.64C424.76 139.2 423.893 138.593 423.253 137.82C422.613 137.047 422.266 136.147 422.213 135.12Z" fill="#3D4FD6"/>
<path d="M155 58C158.866 58 162 54.866 162 51C162 47.134 158.866 44 155 44C151.134 44 148 47.134 148 51C148 54.866 151.134 58 155 58Z" fill="#3D4FD6"/>
</svg>
